<svg width="86" height="86" viewBox="0 0 86 86" fill="none" xmlns="http://www.w3.org/2000/svg">
<path d="M77.9375 2.01569H8.0625C6.47708 1.99956 4.95002 2.61302 3.81638 3.72147C2.68274 4.82992 2.03512 6.34281 2.01562 7.92819V78.0854C2.03864 79.6684 2.68781 81.1779 3.82107 82.2834C4.95432 83.389 6.47938 84.0006 8.0625 83.9844H77.9375C79.523 83.997 81.049 83.3815 82.1821 82.2723C83.3152 81.1632 83.9631 79.6507 83.9844 78.0652V7.90804C83.9561 6.32731 83.3051 4.82162 82.1728 3.71826C81.0405 2.6149 79.5184 2.00305 77.9375 2.01569Z" fill="#0076B2"/>
<path d="M14.1496 32.7405H26.3173V71.8906H14.1496V32.7405ZM20.2368 13.2561C21.6324 13.2561 22.9966 13.67 24.1569 14.4455C25.3172 15.221 26.2214 16.3232 26.7551 17.6126C27.2889 18.9021 27.4282 20.3209 27.1555 21.6896C26.8827 23.0582 26.2101 24.3152 25.2229 25.3016C24.2356 26.2879 22.9779 26.9593 21.609 27.2307C20.2401 27.5022 18.8214 27.3615 17.5324 26.8265C16.2435 26.2916 15.1422 25.3863 14.3678 24.2253C13.5934 23.0643 13.1808 21.6996 13.1821 20.3041C13.1839 18.4342 13.928 16.6416 15.2508 15.32C16.5736 13.9984 18.367 13.2561 20.2368 13.2561ZM33.9498 32.7405H45.6135V38.1155H45.7748C47.4007 35.0383 51.3648 31.7931 57.284 31.7931C69.6062 31.7663 71.8906 39.8758 71.8906 50.3906V71.8906H59.7229V52.843C59.7229 48.3078 59.6423 42.4692 53.4006 42.4692C47.1589 42.4692 46.0973 47.4142 46.0973 52.5474V71.8906H33.9498V32.7405Z" fill="white"/>
</svg>
