<svg width="86" height="86" viewBox="0 0 86 86" fill="none" xmlns="http://www.w3.org/2000/svg">
<g clip-path="url(#clip0_181_457)">
<path d="M71.7025 55.1117C67.295 55.1117 63.0308 54.395 59.0533 53.105C57.7992 52.675 56.4017 52.9975 55.4342 53.965L49.8083 61.0242C39.6675 56.1867 30.1717 47.0492 25.1192 36.55L32.1067 30.6017C33.0742 29.5983 33.3608 28.2008 32.9667 26.9467C31.6408 22.9692 30.96 18.705 30.96 14.2975C30.96 12.3625 29.3475 10.75 27.4125 10.75H15.0142C13.0792 10.75 10.75 11.61 10.75 14.2975C10.75 47.5867 38.4492 75.25 71.7025 75.25C74.2467 75.25 75.25 72.9925 75.25 71.0217V58.6592C75.25 56.7242 73.6375 55.1117 71.7025 55.1117Z" fill="#61DAFB"/>
</g>
<defs>
<clipPath id="clip0_181_457">
<rect width="86" height="86" fill="white"/>
</clipPath>
</defs>
</svg>
