<svg width="18" height="18" viewBox="0 0 18 18" fill="none" xmlns="http://www.w3.org/2000/svg">
<g clip-path="url(#clip0_181_263)">
<path fill-rule="evenodd" clip-rule="evenodd" d="M9.00012 0.717651C4.3107 0.717651 0.508057 4.51945 0.508057 9.20971C0.508057 12.9619 2.94129 16.1449 6.31545 17.2679C6.73971 17.3467 6.89553 17.0837 6.89553 16.8594C6.89553 16.6569 6.88765 15.988 6.88399 15.2784C4.52149 15.7921 4.02298 14.2764 4.02298 14.2764C3.63668 13.2949 3.08009 13.0339 3.08009 13.0339C2.30946 12.5068 3.13817 12.5178 3.13817 12.5178C3.99078 12.5775 4.43993 13.3929 4.43993 13.3929C5.19734 14.6909 6.42654 14.3157 6.91113 14.0988C6.98735 13.55 7.20743 13.1752 7.45029 12.9631C5.56409 12.7487 3.58113 12.0204 3.58113 8.76646C3.58113 7.83932 3.91301 7.08178 4.45624 6.48693C4.36793 6.27318 4.07726 5.40946 4.53837 4.23975C4.53837 4.23975 5.25134 4.01151 6.87415 5.11021C7.55168 4.92192 8.27829 4.82728 9.00012 4.82404C9.72153 4.82728 10.4486 4.92164 11.1274 5.10993C12.7482 4.01123 13.4603 4.23946 13.4603 4.23946C13.9226 5.40904 13.6319 6.2729 13.5437 6.48665C14.0882 7.08149 14.4177 7.83904 14.4177 8.76618C14.4177 12.0278 12.4311 12.7459 10.5401 12.9562C10.8448 13.2198 11.1162 13.7367 11.1162 14.5289C11.1162 15.6651 11.1064 16.5796 11.1064 16.8593C11.1064 17.0853 11.2594 17.3501 11.6897 17.2667C15.0619 16.1425 17.4923 12.9605 17.4923 9.20971C17.4922 4.51973 13.69 0.717792 9.00012 0.717792V0.717651Z" fill="white"/>
<path d="M3.72441 12.9102C3.7057 12.9524 3.63933 12.9651 3.57886 12.9362C3.51699 12.9087 3.48253 12.8512 3.5025 12.8088C3.52078 12.7652 3.5873 12.7533 3.64875 12.7824C3.71063 12.8101 3.74578 12.8682 3.72427 12.9104L3.72441 12.9102ZM4.06838 13.294C4.02802 13.3315 3.94884 13.3141 3.89513 13.2546C3.83944 13.1956 3.82903 13.1164 3.87024 13.0783C3.91214 13.0409 3.98892 13.0586 4.04461 13.1177C4.10002 13.1776 4.11099 13.256 4.06852 13.2941L4.06838 13.294ZM4.40334 13.783C4.35131 13.8192 4.26609 13.7853 4.2135 13.7098C4.16147 13.6342 4.16147 13.5435 4.21491 13.5073C4.26736 13.471 4.35131 13.5038 4.40475 13.5786C4.4565 13.6553 4.4565 13.746 4.40334 13.7828V13.783ZM4.86192 14.2556C4.81552 14.3069 4.71624 14.2931 4.64367 14.2232C4.56956 14.1548 4.54889 14.0573 4.59544 14.0061C4.64269 13.9547 4.74239 13.969 4.81538 14.0385C4.88949 14.1068 4.91184 14.2044 4.8622 14.2555L4.86192 14.2556ZM5.49474 14.53C5.47406 14.5965 5.37872 14.6267 5.28239 14.5983C5.18634 14.5692 5.12349 14.4914 5.14317 14.4242C5.16286 14.3571 5.25891 14.3258 5.3558 14.356C5.45184 14.385 5.5147 14.4623 5.49474 14.53ZM6.18984 14.5807C6.19223 14.6507 6.11067 14.7087 6.00984 14.7101C5.90817 14.7125 5.82591 14.6557 5.82492 14.5868C5.82492 14.516 5.9048 14.4588 6.00633 14.4568C6.10716 14.455 6.18998 14.5112 6.18998 14.5806L6.18984 14.5807ZM6.83644 14.4707C6.84853 14.539 6.77836 14.6091 6.67809 14.6278C6.57966 14.6461 6.48825 14.6036 6.47559 14.536C6.4635 14.466 6.53494 14.3958 6.63338 14.3777C6.73378 14.3604 6.82378 14.4016 6.83644 14.4709V14.4707Z" fill="white"/>
</g>
<defs>
<clipPath id="clip0_181_263">
<path d="M0 9C0 4.02944 4.02944 0 9 0C13.9706 0 18 4.02944 18 9C18 13.9706 13.9706 18 9 18C4.02944 18 0 13.9706 0 9Z" fill="white"/>
</clipPath>
</defs>
</svg>
