<svg width="86" height="86" viewBox="0 0 86 86" fill="none" xmlns="http://www.w3.org/2000/svg">
<path d="M29.9589 2.8286C21.3661 5.80949 13.9558 11.4673 8.81623 18.9711C3.67671 26.4748 1.07892 35.4289 1.40445 44.5182C1.72998 53.6075 4.96167 62.3528 10.6248 69.4697C16.288 76.5865 24.0841 81.6997 32.8681 84.0583C39.9894 85.8958 47.4505 85.9765 54.6099 84.2934C61.0957 82.8366 67.0919 79.7204 72.0115 75.25C77.1317 70.4551 80.8483 64.3554 82.7615 57.6066C84.8404 50.2673 85.2104 42.5494 83.8432 35.045H43.8532V51.6336H67.0128C66.5499 54.2794 65.558 56.8045 64.0965 59.058C62.635 61.3115 60.7338 63.247 58.5068 64.7486C55.6791 66.62 52.491 67.8788 49.1476 68.4439C45.7946 69.0675 42.3553 69.0675 39.0023 68.4439C35.6036 67.742 32.3886 66.3393 29.5624 64.3253C25.0216 61.111 21.612 56.5445 19.8203 51.2775C17.9987 45.9118 17.9987 40.0949 19.8203 34.7292C21.0957 30.9682 23.204 27.5438 25.9881 24.7116C29.174 21.411 33.2076 19.0517 37.6461 17.8925C42.0847 16.7334 46.7568 16.8193 51.1498 18.1406C54.5817 19.1936 57.72 21.0342 60.3142 23.5156C62.9255 20.9177 65.5324 18.3131 68.1348 15.7017C69.4785 14.2975 70.9432 12.9605 72.2668 11.5227C68.3063 7.83755 63.6578 4.96989 58.5874 3.08391C49.3539 -0.268816 39.2507 -0.358917 29.9589 2.8286Z" fill="white"/>
<path d="M29.959 2.82869C39.2501 -0.360992 49.3533 -0.273263 58.5876 3.07728C63.6589 4.97607 68.3053 7.85754 72.2603 11.5563C70.9165 12.9942 69.4989 14.3379 68.1282 15.7354C65.5214 18.3378 62.9167 20.9312 60.3143 23.5157C57.7202 21.0343 54.5819 19.1937 51.15 18.1407C46.7584 16.8147 42.0865 16.7239 37.6467 17.8783C33.207 19.0327 29.171 21.3876 25.9815 24.6848C23.1975 27.517 21.0891 30.9414 19.8137 34.7024L5.88574 23.9188C10.8711 14.0326 19.503 6.47041 29.959 2.82869Z" fill="#E33629"/>
<path d="M2.19028 34.6015C2.93835 30.8912 4.18122 27.2982 5.8856 23.9187L19.8136 34.7292C17.992 40.0949 17.992 45.9117 19.8136 51.2775C15.1731 54.8608 10.5305 58.462 5.8856 62.0812C1.6202 53.5908 0.319331 43.9171 2.19028 34.6015Z" fill="#F8BD00"/>
<path d="M43.8533 35.0383H83.8433C85.2105 42.5428 84.8405 50.2607 82.7616 57.5999C80.8484 64.3487 77.1318 70.4485 72.0116 75.2433C67.5168 71.7361 63.0018 68.2558 58.5069 64.7486C60.7354 63.2455 62.6374 61.3079 64.099 59.052C65.5606 56.7961 66.5517 54.2684 67.0129 51.6202H43.8533C43.8466 46.0974 43.8533 40.5679 43.8533 35.0383Z" fill="#587DBD"/>
<path d="M5.87891 62.0813C10.5238 58.498 15.1665 54.8968 19.8069 51.2776C21.6022 56.5464 25.0166 61.1131 29.5625 64.3254C32.3975 66.3301 35.6194 67.7213 39.0225 68.4104C42.3755 69.034 45.8148 69.034 49.1678 68.4104C52.5112 67.8453 55.6994 66.5865 58.527 64.7151C63.0219 68.2223 67.5369 71.7026 72.0317 75.2098C67.1129 79.6826 61.1166 82.8012 54.6302 84.2599C47.4707 85.943 40.0096 85.8623 32.8883 84.0248C27.256 82.5209 21.995 79.8699 17.4352 76.2377C12.6093 72.4055 8.66742 67.5767 5.87891 62.0813Z" fill="#319F43"/>
</svg>
